# xmcd
#
# Track frame offsets:
#	150
#	15727
#	31937
#	47395
#	67767
#	84115
#	100285
#	119567
#	138275
#	153097
#	170622
#	188202
#	207392
#	225032
#	245842
#	266060
#	285445
#	303790
#
# Disc length: 4309 seconds
#
# Revision: 1
# Processed by: cddbd v1.5.1PL0 Copyright (c) Steve Scherf et al.
# Submitted via: CDex 1.50Beta5
#
DISCID=e010d312
DTITLE=さまざまなアーティスト - BEST OF THE 80's
DYEAR=1900
DGENRE=Pop
TTITLE0=Daryl Hall and John Oates/プライベート・アイズ
TTITLE1=Rick Springfield/Love Somebody
TTITLE2=STRAY CATS/RTock This Town
TTITLE3=Boy Meets Girl/Waiting For A Star Fall
TTITLE4=Eurythmics/Sweet Drteams
TTITLE5=Haircut100/Love plus one
TTITLE6=THE BLOW MONKEYS/DIGGING YOU SCENE
TTITLE7=Gazebo/I Like Chopin
TTITLE8=Rick Astley/She wants to dance
TTITLE9=Pointer Sisters/Slow hand
TTITLE10=Air Supplu/Lost in love
TTITLE11=Poco/Call It Love
TTITLE12=Paul Davis/65 love affair
TTITLE13=ALAN PARSONS PROJECT/EYE IN THE SKY
TTITLE14=Starship/NOTHINGS GONNA STOP US NOW
TTITLE15=エクスポゼ/カム・ゴー・ウィズ・ミー
TTITLE16=RAY PARKE JR./THE OTHER WOMAN
TTITLE17=Taylor Dayne/I`ll Always Love You
EXTD=
EXTT0=
EXTT1=
EXTT2=
EXTT3=
EXTT4=
EXTT5=
EXTT6=
EXTT7=
EXTT8=
EXTT9=
EXTT10=
EXTT11=
EXTT12=
EXTT13=
EXTT14=
EXTT15=
EXTT16=
EXTT17=
PLAYORDER=
